<svg class="svg-icon" style="width: 1.1875em; height: 1em;vertical-align: middle;fill: currentColor;overflow: hidden;" viewBox="0 0 1216 1024" version="1.1" xmlns="http://www.w3.org/2000/svg"><path d="M1087.9932 1024 127.9992 1024C57.407641 1024 0 966.592359 0 896.0008L0 128.0056C0 57.414041 57.407641 0.0064 127.9992 0.0064L479.997 0.0064C497.692889 0.0064 511.9968 14.34231 511.9968 32.0062 511.9968 49.67009 497.692889 64.006 479.997 64.006L127.9992 64.006C92.703421 64.006 63.9996 92.709821 63.9996 128.0056L63.9996 896.0008C63.9996 931.296579 92.703421 960.0004 127.9992 960.0004L1087.9932 960.0004C1123.288979 960.0004 1151.9928 931.296579 1151.9928 896.0008L1151.9928 736.0018C1151.9928 718.33791 1166.296711 704.002 1183.9926 704.002 1201.688489 704.002 1215.9924 718.33791 1215.9924 736.0018L1215.9924 896.0008C1215.9924 966.592359 1158.584759 1024 1087.9932 1024L1087.9932 1024 1087.9932 1024ZM479.997 767.9952C471.805051 767.9952 463.613102 764.85922 457.373141 758.619259 444.86122 746.107337 444.86122 725.883463 457.373141 713.371541L1106.745083 63.9996 735.9954 63.9996C718.299511 63.9996 703.9956 49.66369 703.9956 31.9998 703.9956 14.33591 718.299511 0 735.9954 0L1183.768601 0C1184.632596 0 1185.432591 0.032 1186.232586 0.095999 1192.728545 0.543997 1198.648508 2.911982 1203.480478 6.623959 1205.208467 7.93595 1206.776458 9.439941 1208.184449 11.071931 1213.016419 16.671896 1215.9604 23.93585 1215.9924 31.9358L1215.9924 31.9998 1215.9924 479.997C1215.9924 497.66089 1201.688489 511.9968 1183.9926 511.9968 1166.296711 511.9968 1151.9928 497.66089 1151.9928 479.997L1151.9928 109.247317 502.620859 758.619259C496.380898 764.85922 488.188949 767.9952 479.997 767.9952L479.997 767.9952 479.997 767.9952Z"  /></svg>